<?xml version="1.0" encoding="UTF-8" standalone="no"?>
<!-- Created with Inkscape (http://www.inkscape.org/) -->

<svg
   xmlns:dc="http://purl.org/dc/elements/1.1/"
   xmlns:cc="http://creativecommons.org/ns#"
   xmlns:rdf="http://www.w3.org/1999/02/22-rdf-syntax-ns#"
   xmlns:svg="http://www.w3.org/2000/svg"
   xmlns="http://www.w3.org/2000/svg"
   xmlns:xlink="http://www.w3.org/1999/xlink"
   xmlns:sodipodi="http://sodipodi.sourceforge.net/DTD/sodipodi-0.dtd"
   xmlns:inkscape="http://www.inkscape.org/namespaces/inkscape"
   id="svg3004"
   version="1.1"
   inkscape:version="0.48.1 r9760"
   width="9000"
   height="12000"
   xml:space="preserve"
   sodipodi:docname="pattern.svg"
   inkscape:export-filename="/home/peter/mercurial/multi_cam_tracker/calibration/pattern.png"
   inkscape:export-xdpi="90"
   inkscape:export-ydpi="90"><metadata
     id="metadata3010"><rdf:RDF><cc:Work
         rdf:about=""><dc:format>image/svg+xml</dc:format><dc:type
           rdf:resource="http://purl.org/dc/dcmitype/StillImage" /><dc:title></dc:title></cc:Work></rdf:RDF></metadata><defs
     id="defs3008" /><sodipodi:namedview
     pagecolor="#ffffff"
     bordercolor="#666666"
     borderopacity="1"
     objecttolerance="10"
     gridtolerance="10"
     guidetolerance="10"
     inkscape:pageopacity="0"
     inkscape:pageshadow="2"
     inkscape:window-width="1920"
     inkscape:window-height="1003"
     id="namedview3006"
     showgrid="false"
     inkscape:zoom="0.054378329"
     inkscape:cx="5855.034"
     inkscape:cy="6759.4176"
     inkscape:window-x="0"
     inkscape:window-y="24"
     inkscape:window-maximized="1"
     inkscape:current-layer="g3012"
     inkscape:showpageshadow="false"
     showborder="true" /><g
     id="g3012"
     inkscape:groupmode="layer"
     inkscape:label="ink_ext_XXXXXX"
     transform="matrix(1.25,0,0,-1.25,0,12000)"><path
       inkscape:connector-curvature="0"
       id="path3018"
       style="fill:none;stroke:none"
       d="m 0,170.086 85.0254,0 0,85.0273 -85.0254,0 0,-85.0273 z" /><path
       inkscape:connector-curvature="0"
       id="path3022"
       style="fill:none;stroke:none"
       d="m 0,340.14 85.0254,0 0,85.0273 -85.0254,0 0,-85.0273 z" /><path
       inkscape:connector-curvature="0"
       id="path3026"
       style="fill:none;stroke:none"
       d="m 85.0078,85.0668 85.0254,0 0,85.0273 -85.0254,0 0,-85.0273 z" /><path
       inkscape:connector-curvature="0"
       id="path3030"
       style="fill:none;stroke:none"
       d="m 170.051,170.112 85.0254,0 0,85.0273 -85.0254,0 0,-85.0273 z" /><path
       inkscape:connector-curvature="0"
       id="path3034"
       style="fill:none;stroke:none"
       d="m 85.043,255.086 85.0254,0 0,85.0273 -85.0254,0 0,-85.0273 z" /><path
       inkscape:connector-curvature="0"
       id="path3038"
       style="fill:none;stroke:none"
       d="m 170.051,340.167 85.0254,0 0,85.0273 -85.0254,0 0,-85.0273 z" /><path
       inkscape:connector-curvature="0"
       id="path3042"
       style="fill:none;stroke:none"
       d="m 0.0351562,510.221 85.0257998,0 0,85.0273 -85.0257998,0 0,-85.0273 z" /><path
       inkscape:connector-curvature="0"
       id="path3046"
       style="fill:none;stroke:none"
       d="m 0.0351562,680.276 85.0257998,0 0,85.0273 -85.0257998,0 0,-85.0273 z" /><path
       inkscape:connector-curvature="0"
       id="path3050"
       style="fill:none;stroke:none"
       d="m 85.043,425.203 85.0254,0 0,85.0273 -85.0254,0 0,-85.0273 z" /><path
       inkscape:connector-curvature="0"
       id="path3054"
       style="fill:none;stroke:none"
       d="m 170.086,510.248 85.0254,0 0,85.0273 -85.0254,0 0,-85.0273 z" /><path
       inkscape:connector-curvature="0"
       id="path3058"
       style="fill:none;stroke:none"
       d="m 85.0785,595.222 85.0254,0 0,85.0273 -85.0254,0 0,-85.0273 z" /><path
       inkscape:connector-curvature="0"
       id="path3062"
       style="fill:none;stroke:none"
       d="m 170.086,680.303 85.0254,0 0,85.0273 -85.0254,0 0,-85.0273 z" /><path
       inkscape:connector-curvature="0"
       id="path3066"
       style="fill:none;stroke:none"
       d="m 255.112,85.0535 85.0254,0 0,85.0273 -85.0254,0 0,-85.0273 z" /><path
       inkscape:connector-curvature="0"
       id="path3070"
       style="fill:none;stroke:none"
       d="m 340.155,170.099 85.0254,0 0,85.0273 -85.0254,0 0,-85.0273 z" /><path
       inkscape:connector-curvature="0"
       id="path3074"
       style="fill:none;stroke:none"
       d="m 255.094,255.126 85.0254,0 0,85.0273 -85.0254,0 0,-85.0273 z" /><path
       inkscape:connector-curvature="0"
       id="path3078"
       style="fill:none;stroke:none"
       d="m 340.155,340.154 85.0254,0 0,85.0273 -85.0254,0 0,-85.0273 z" /><path
       inkscape:connector-curvature="0"
       id="path3082"
       style="fill:none;stroke:none"
       d="m 425.162,85.0801 85.0254,0 0,85.0273 -85.0254,0 0,-85.0273 z" /><path
       inkscape:connector-curvature="0"
       id="path3086"
       style="fill:none;stroke:none"
       d="m 510.205,170.125 85.0254,0 0,85.0273 -85.0254,0 0,-85.0273 z" /><path
       inkscape:connector-curvature="0"
       id="path3090"
       style="fill:none;stroke:none"
       d="m 425.198,255.1 85.0258,0 0,85.0273 -85.0258,0 0,-85.0273 z" /><path
       inkscape:connector-curvature="0"
       id="path3094"
       style="fill:none;stroke:none"
       d="m 510.205,340.18 85.0254,0 0,85.0273 -85.0254,0 0,-85.0273 z" /><path
       inkscape:connector-curvature="0"
       id="path3098"
       style="fill:none;stroke:none"
       d="m 255.147,425.19 85.025,0 0,85.027 -85.025,0 0,-85.027 z" /><path
       inkscape:connector-curvature="0"
       id="path3102"
       style="fill:none;stroke:none"
       d="m 340.19,510.235 85.0254,0 0,85.0273 -85.0254,0 0,-85.0273 z" /><path
       inkscape:connector-curvature="0"
       id="path3106"
       style="fill:none;stroke:none"
       d="m 255.129,595.262 85.0254,0 0,85.0273 -85.0254,0 0,-85.0273 z" /><path
       inkscape:connector-curvature="0"
       id="path3110"
       style="fill:none;stroke:none"
       d="m 340.19,680.289 85.0254,0 0,85.0273 -85.0254,0 0,-85.0273 z" /><path
       inkscape:connector-curvature="0"
       id="path3114"
       style="fill:none;stroke:none"
       d="m 425.198,425.216 85.0258,0 0,85.027 -85.0258,0 0,-85.027 z" /><path
       inkscape:connector-curvature="0"
       id="path3118"
       style="fill:none;stroke:none"
       d="m 510.241,510.261 85.0254,0 0,85.0273 -85.0254,0 0,-85.0273 z" /><path
       inkscape:connector-curvature="0"
       id="path3122"
       style="fill:none;stroke:none"
       d="m 425.233,595.236 85.0254,0 0,85.0273 -85.0254,0 0,-85.0273 z" /><path
       inkscape:connector-curvature="0"
       id="path3126"
       style="fill:none;stroke:none"
       d="m 510.241,680.316 85.0254,0 0,85.0273 -85.0254,0 0,-85.0273 z" /><path
       inkscape:connector-curvature="0"
       id="path3130"
       style="fill:none;stroke:none"
       d="m 0.0101562,0 85.0253998,0 0,85.0273 -85.0253998,0 0,-85.0273 z" /><path
       inkscape:connector-curvature="0"
       id="path3134"
       style="fill:none;stroke:none"
       d="m 170.061,0.0265625 85.0258,0 0,85.0273005 -85.0258,0 0,-85.0273005 z" /><path
       inkscape:connector-curvature="0"
       id="path3138"
       style="fill:none;stroke:none"
       d="m 340.165,0.0132812 85.0254,0 0,85.0272998 -85.0254,0 0,-85.0272998 z" /><path
       inkscape:connector-curvature="0"
       id="path3142"
       style="fill:none;stroke:none"
       d="m 510.216,0.0398438 85.0254,0 0,85.0273002 -85.0254,0 0,-85.0273002 z" /><g
       id="g3965"
       inkscape:tile-cx="3434.9574"
       inkscape:tile-cy="5417.5121"
       inkscape:tile-w="3000"
       inkscape:tile-h="3000"
       inkscape:tile-x0="1934.9574"
       inkscape:tile-y0="3917.5121"><rect
         transform="scale(1,-1)"
         y="-1200"
         x="0"
         height="1200"
         width="1200"
         id="rect4912"
         style="fill:#000000;fill-opacity:1;stroke:none" /><rect
         transform="scale(1,-1)"
         y="-2400"
         x="1200"
         height="1200"
         width="1200"
         id="rect4914"
         style="fill:#000000;fill-opacity:1;stroke:none" /><rect
         transform="scale(1,-1)"
         y="-2400"
         x="0"
         height="1200"
         width="1200"
         id="rect3177"
         style="fill:#ffffff;fill-opacity:1;stroke:none" /><rect
         transform="scale(1,-1)"
         y="-1200"
         x="1200"
         height="1200"
         width="1200"
         id="rect3177-7"
         style="fill:#ffffff;fill-opacity:1;stroke:none" /></g><use
       x="0"
       y="0"
       inkscape:tiled-clone-of="#g3965"
       xlink:href="#g3965"
       id="use4053" /><use
       x="0"
       y="0"
       inkscape:tiled-clone-of="#g3965"
       xlink:href="#g3965"
       transform="translate(0,2400)"
       id="use4055" /><use
       x="0"
       y="0"
       inkscape:tiled-clone-of="#g3965"
       xlink:href="#g3965"
       transform="translate(0,4800)"
       id="use4057" /><use
       x="0"
       y="0"
       inkscape:tiled-clone-of="#g3965"
       xlink:href="#g3965"
       transform="translate(0,7200)"
       id="use4059" /><use
       x="0"
       y="0"
       inkscape:tiled-clone-of="#g3965"
       xlink:href="#g3965"
       transform="translate(2400,0)"
       id="use4061" /><use
       x="0"
       y="0"
       inkscape:tiled-clone-of="#g3965"
       xlink:href="#g3965"
       transform="translate(2400,2400)"
       id="use4063" /><use
       x="0"
       y="0"
       inkscape:tiled-clone-of="#g3965"
       xlink:href="#g3965"
       transform="translate(2400,4800)"
       id="use4065" /><use
       x="0"
       y="0"
       inkscape:tiled-clone-of="#g3965"
       xlink:href="#g3965"
       transform="translate(2400,7200)"
       id="use4067" /><use
       x="0"
       y="0"
       inkscape:tiled-clone-of="#g3965"
       xlink:href="#g3965"
       transform="translate(4800,0)"
       id="use4069" /><use
       x="0"
       y="0"
       inkscape:tiled-clone-of="#g3965"
       xlink:href="#g3965"
       transform="translate(4800,2400)"
       id="use4071" /><use
       x="0"
       y="0"
       inkscape:tiled-clone-of="#g3965"
       xlink:href="#g3965"
       transform="translate(4800,4800)"
       id="use4073" /><use
       x="0"
       y="0"
       inkscape:tiled-clone-of="#g3965"
       xlink:href="#g3965"
       transform="translate(4800,7200)"
       id="use4075" /></g></svg>